<svg id="Capa_1" data-name="Capa 1" xmlns="http://www.w3.org/2000/svg" viewBox="0 0 380 380"><title>sfree</title><rect width="380" height="380" fill="#e5085b"/><path d="M292.13,237.71c18.34,0,36.68.12,55-.07a19.93,19.93,0,0,1,13.78,5.09c7,6,12,13.61,16.36,21.6a177.21,177.21,0,0,1,19.49,55.83,73.17,73.17,0,0,1-.15,28c-4.44,20.6-26.78,23.78-39.39,15.79a28.83,28.83,0,0,1-9.72-10.13c-4.11-7.13-8.28-14.23-12.34-21.39a2.64,2.64,0,0,0-2.68-1.55q-40.34.06-80.68,0a2.68,2.68,0,0,0-2.64,1.61c-4.37,7.42-9,14.72-13.18,22.23-6.37,11.36-25,18.38-38.8,8.85-6.77-4.67-9.59-11.46-10.65-19.18-1.68-12.25.27-24.24,3.37-36A179.44,179.44,0,0,1,212.7,256a58.29,58.29,0,0,1,12.54-14.48,16.86,16.86,0,0,1,11-3.83C254.85,237.78,273.49,237.71,292.13,237.71ZM262.92,295.2c0.84,0,1.68,0,2.52,0a11.44,11.44,0,0,0,11.23-10.81A11.25,11.25,0,0,0,266.53,273a52.28,52.28,0,0,0-6.63-.15c-1.06,0-1.51-.23-1.45-1.39,0.1-1.83.06-3.67,0-5.5a11.42,11.42,0,0,0-22.83,0c0,1.83-.07,3.67,0,5.5,0.06,1.13-.34,1.43-1.43,1.4a50.72,50.72,0,0,0-6.41.11c-6.06.62-10.63,5.68-10.41,11.34a11.46,11.46,0,0,0,11.43,10.85c1.83,0,3.67.06,5.5,0a1,1,0,0,1,1.31,1.3c-0.06,2-.09,4,0,6a10.92,10.92,0,0,0,6.65,9.9A10.68,10.68,0,0,0,254.12,311c3.67-2.85,4.53-6.81,4.39-11.23S258.48,295.21,262.92,295.2Zm79.6,13.71a9.29,9.29,0,0,0,9.55-9,9.34,9.34,0,1,0-18.67-.19A9.25,9.25,0,0,0,342.52,308.91Zm-24.84-24.69a9.14,9.14,0,0,0,9.53,9A9.13,9.13,0,1,0,317.69,284.21Zm24.91-25a9.17,9.17,0,0,0-9.2,9.15A9.34,9.34,0,1,0,342.6,259.25Zm25.17,24.84a9.27,9.27,0,0,0-18.54.06A9.27,9.27,0,0,0,367.77,284.09Zm-58.9,29.39c-1.52,0-3,0-4.57,0-2.1.06-3.56,1.28-3.57,3.05,0,2.11,1.37,3,3.21,3.11,3.19,0.13,6.39.11,9.59,0a2.68,2.68,0,0,0,2.85-3.11c-0.09-2-1.11-3.08-3.17-3.08h-4.34Zm-33.29,6.17c1.6,0,3.21.09,4.81,0,1.85-.14,3-1.16,2.88-3.13a2.89,2.89,0,0,0-3.09-3c-3.13-.06-6.27-0.08-9.39,0a3,3,0,0,0-3.15,3c-0.13,2,1.13,3,2.91,3.13S273.9,319.65,275.58,319.65Z" transform="translate(-102 -164)" fill="#fff"/><path d="M291.91,231.87c-7.25,0-14.49,0-21.74-.06-0.83,0-2.48,1.09-2.58-1-0.09-1.82,0-3.6,2.19-4.23a5.82,5.82,0,0,1,1.59-.12h41.19a5.86,5.86,0,0,1,1.8.18c2.17,0.72,2.17,2.58,2,4.34s-1.67.85-2.5,0.86C306.56,231.91,299.23,231.87,291.91,231.87Z" transform="translate(-102 -164)" fill="#fff"/><path d="M291.83,220.73c-3.82,0-7.64.06-11.45,0-0.86,0-2.36.86-2.5-1a3.46,3.46,0,0,1,2.2-3.86,3.91,3.91,0,0,1,1.36-.12c6.95,0,13.9,0,20.84,0a3.51,3.51,0,0,1,3.77,3c0.3,1.28.16,2.14-1.63,2.09C300.24,220.64,296,220.73,291.83,220.73Z" transform="translate(-102 -164)" fill="#fff"/><path d="M275.55,318.49c-1.33,0-2.66.08-4,0s-2.41-.69-2.3-1.92,1-1.79,2.49-1.83c2.47-.06,5,0,7.42,0,1.49,0,2.36.68,2.44,1.84s-0.82,1.84-2.28,1.92C278.09,318.55,276.82,318.49,275.55,318.49Z" transform="translate(-102 -164)" fill="#f9f9f9"/><path d="M252.15,297.75c0,1.68.08,3.37,0,5a4.87,4.87,0,0,1-4.82,4.83,5,5,0,0,1-5.33-4.81c-0.14-3.13,0-6.26-.08-9.4,0-2.82-1.05-3.87-3.88-3.91s-5.5,0-8.25,0c-3.69-.08-6.11-2.27-6.1-5.43s2.49-5.35,6.13-5.39c2.45,0,4.89,0,7.34,0,4,0,4.77-.83,4.77-4.88,0-2.52,0-5,0-7.57,0.07-3.16,2.53-5.76,5.35-5.77s4.85,2.32,4.9,5.76c0,2.67,0,5.35,0,8,0,3.48,1,4.42,4.53,4.42,2.6,0,5.2,0,7.79,0,3.44,0.05,5.91,2.32,5.93,5.37s-2.3,5.28-5.65,5.42c-2.9.12-5.81,0-8.71,0s-3.86,1.09-3.89,3.89c0,1.45,0,2.9,0,4.36h0Z" transform="translate(-102 -164)" fill="#fff"/><path d="M345.8,299.8a3.14,3.14,0,0,1-3.1,3.27,3.28,3.28,0,1,1,0-6.55A3.19,3.19,0,0,1,345.8,299.8Z" transform="translate(-102 -164)" fill="#fff"/><path d="M327,286.93c-2,0-3-1-3-2.89a2.94,2.94,0,0,1,3.06-3.23,3,3,0,0,1,3.07,3.25A2.79,2.79,0,0,1,327,286.93Z" transform="translate(-102 -164)" fill="#fff"/><path d="M342.73,265a3.12,3.12,0,0,1,3.14,3.21,3.44,3.44,0,0,1-3.25,3.47A3.34,3.34,0,1,1,342.73,265Z" transform="translate(-102 -164)" fill="#fff"/><path d="M358.37,286.93a2.83,2.83,0,0,1-3-2.76,3.2,3.2,0,0,1,3.23-3.36c2,0.05,2.79,1.39,3,3.1S360.42,286.9,358.37,286.93Z" transform="translate(-102 -164)" fill="#fff"/><path d="M308.66,318.49c-1.33,0-2.66.08-4,0s-2.41-.69-2.3-1.92,1-1.79,2.49-1.83c2.47-.06,5,0,7.42,0,1.49,0,2.36.68,2.44,1.84s-0.82,1.84-2.28,1.92C311.2,318.55,309.92,318.49,308.66,318.49Z" transform="translate(-102 -164)" fill="#f9f9f9"/><text transform="translate(78.01 298.9)" font-size="108.42" fill="#fff" font-family="Roboto" font-weight="700" font-style="italic">Sf<tspan x="92.06" y="0" letter-spacing="-1">r</tspan><tspan x="124.77" y="0">ee</tspan></text></svg>